<?xml version="1.0" standalone="no"?>
<!DOCTYPE svg PUBLIC "-//W3C//DTD SVG 20010904//EN"
 "http://www.w3.org/TR/2001/REC-SVG-20010904/DTD/svg10.dtd">
<svg version="1.0" xmlns="http://www.w3.org/2000/svg"
 width="484.000000pt" height="484.000000pt" viewBox="0 0 484.000000 484.000000"
 preserveAspectRatio="xMidYMid meet">
<metadata>
Created by potrace 1.14, written by Peter Selinger 2001-2017
</metadata>
<g transform="translate(0.000000,484.000000) scale(0.100000,-0.100000)"
fill="#000000" stroke="none">
<path d="M410 4829 c-89 -15 -173 -62 -255 -144 -84 -85 -129 -167 -145 -265
-14 -90 -14 -3910 0 -4000 16 -98 61 -180 145 -265 85 -84 167 -129 265 -145
90 -14 3910 -14 4000 0 98 16 180 61 265 145 84 85 129 167 145 265 14 90 14
3910 0 4000 -16 98 -61 180 -145 265 -85 84 -167 129 -265 145 -82 13 -3930
12 -4010 -1z m2765 -891 c-8 -24 -226 -729 -485 -1568 -259 -838 -472 -1526
-474 -1527 -2 -2 -111 -2 -243 -1 l-239 3 487 1554 c268 854 490 1560 493
1567 4 11 51 14 240 14 l235 0 -14 -42z m-1605 -865 l-1 -238 -606 -390 c-333
-214 -610 -391 -615 -393 -4 -2 -8 108 -8 245 l0 248 613 382 c336 210 613
382 615 382 1 1 2 -106 2 -236z m2368 -152 l602 -375 0 -248 0 -249 -28 17
c-16 9 -291 186 -613 393 l-584 376 -3 238 c-2 198 0 237 11 230 8 -4 284
-176 615 -382z m-2554 -996 l216 -146 0 -250 0 -251 -107 74 c-60 41 -240 164
-401 272 -259 176 -291 200 -275 211 10 7 90 63 177 124 87 61 162 111 166
111 4 0 105 -65 224 -145z m2518 24 c95 -67 174 -123 176 -124 2 -2 -95 -69
-215 -151 -120 -81 -300 -203 -400 -271 l-183 -124 0 250 0 251 217 145 c120
80 221 145 225 145 4 0 85 -55 180 -121z"/>
</g>
</svg>
